<svg width="16" height="17" viewBox="0 0 16 17" fill="none" xmlns="http://www.w3.org/2000/svg">
<path d="M8.93996 8.08559L11.8066 5.19499C11.9322 5.06811 12.0027 4.89603 12.0027 4.71659C12.0027 4.53716 11.9322 4.36508 11.8066 4.2382C11.6811 4.11132 11.5108 4.04004 11.3333 4.04004C11.1558 4.04004 10.9855 4.11132 10.86 4.2382L7.99996 7.13553L5.13996 4.2382C5.01442 4.11132 4.84416 4.04004 4.66663 4.04004C4.48909 4.04004 4.31883 4.11132 4.19329 4.2382C4.06776 4.36508 3.99723 4.53716 3.99723 4.71659C3.99723 4.89603 4.06776 5.06811 4.19329 5.19499L7.05996 8.08559L4.19329 10.9762C4.13081 11.0388 4.08121 11.1133 4.04737 11.1955C4.01352 11.2776 3.99609 11.3656 3.99609 11.4546C3.99609 11.5435 4.01352 11.6316 4.04737 11.7137C4.08121 11.7958 4.13081 11.8703 4.19329 11.933C4.25527 11.9961 4.329 12.0463 4.41024 12.0805C4.49148 12.1147 4.57862 12.1323 4.66663 12.1323C4.75463 12.1323 4.84177 12.1147 4.92301 12.0805C5.00425 12.0463 5.07798 11.9961 5.13996 11.933L7.99996 9.03565L10.86 11.933C10.9219 11.9961 10.9957 12.0463 11.0769 12.0805C11.1581 12.1147 11.2453 12.1323 11.3333 12.1323C11.4213 12.1323 11.5084 12.1147 11.5897 12.0805C11.6709 12.0463 11.7447 11.9961 11.8066 11.933C11.8691 11.8703 11.9187 11.7958 11.9526 11.7137C11.9864 11.6316 12.0038 11.5435 12.0038 11.4546C12.0038 11.3656 11.9864 11.2776 11.9526 11.1955C11.9187 11.1133 11.8691 11.0388 11.8066 10.9762L8.93996 8.08559Z" fill="#1A1A1A"/>
</svg>
