<svg width="100%" height="100%" viewBox="0 0 16 17" fill="none" xmlns="http://www.w3.org/2000/svg">
<path d="M3.33325 15.1667H12.6666C13.197 15.1667 13.7057 14.956 14.0808 14.5809C14.4559 14.2058 14.6666 13.6971 14.6666 13.1667V7.16667C14.6666 6.63624 14.4559 6.12753 14.0808 5.75245C13.7057 5.37738 13.197 5.16667 12.6666 5.16667H11.3333V4.5C11.3333 3.61595 10.9821 2.7681 10.3569 2.14298C9.73182 1.51786 8.88397 1.16667 7.99992 1.16667C7.11586 1.16667 6.26802 1.51786 5.6429 2.14298C5.01777 2.7681 4.66659 3.61595 4.66659 4.5V5.16667H3.33325C2.80282 5.16667 2.29411 5.37738 1.91904 5.75245C1.54397 6.12753 1.33325 6.63624 1.33325 7.16667V13.1667C1.33325 13.6971 1.54397 14.2058 1.91904 14.5809C2.29411 14.956 2.80282 15.1667 3.33325 15.1667ZM5.99992 4.5C5.99992 3.96957 6.21063 3.46086 6.5857 3.08579C6.96078 2.71072 7.46949 2.5 7.99992 2.5C8.53035 2.5 9.03906 2.71072 9.41413 3.08579C9.7892 3.46086 9.99992 3.96957 9.99992 4.5V5.16667H5.99992V4.5ZM2.66659 7.16667C2.66659 6.98986 2.73682 6.82029 2.86185 6.69526C2.98687 6.57024 3.15644 6.5 3.33325 6.5H12.6666C12.8434 6.5 13.013 6.57024 13.138 6.69526C13.263 6.82029 13.3333 6.98986 13.3333 7.16667V13.1667C13.3333 13.3435 13.263 13.513 13.138 13.6381C13.013 13.7631 12.8434 13.8333 12.6666 13.8333H3.33325C3.15644 13.8333 2.98687 13.7631 2.86185 13.6381C2.73682 13.513 2.66659 13.3435 2.66659 13.1667V7.16667Z" fill="#21334F"/>
<path d="M8.00008 11.5C8.73646 11.5 9.33341 10.903 9.33341 10.1667C9.33341 9.43029 8.73646 8.83333 8.00008 8.83333C7.2637 8.83333 6.66675 9.43029 6.66675 10.1667C6.66675 10.903 7.2637 11.5 8.00008 11.5Z" fill="#21334F"/>
</svg>
