<svg width="100%" height="100%" viewBox="0 0 12 12" fill="none" xmlns="http://www.w3.org/2000/svg">
<path d="M11.9333 5.73334C11.8667 5.66667 11.8667 5.6 11.8 5.53334L9.8 3.53334C9.53333 3.26667 9.13333 3.26667 8.86667 3.53334C8.6 3.8 8.6 4.2 8.86667 4.46667L9.73333 5.33334H6.66667C6.26667 5.33334 6 5.6 6 6C6 6.4 6.26667 6.66667 6.66667 6.66667H9.73333L8.86667 7.53334C8.6 7.8 8.6 8.2 8.86667 8.46667C9 8.6 9.2 8.66667 9.33333 8.66667C9.46667 8.66667 9.66667 8.6 9.8 8.46667L11.8 6.46667C11.8667 6.4 11.9333 6.33334 11.9333 6.26667C12 6.06667 12 5.93334 11.9333 5.73334Z" fill="#21334F"/>
<path d="M8.33333 10.0667C7.6 10.4667 6.8 10.6667 6 10.6667C3.4 10.6667 1.33333 8.6 1.33333 6C1.33333 3.4 3.4 1.33333 6 1.33333C6.8 1.33333 7.6 1.53333 8.33333 1.93333C8.66667 2.13333 9.06667 2 9.26667 1.66667C9.46667 1.33333 9.33333 0.933333 9 0.733333C8.06667 0.266667 7.06667 0 6 0C2.66667 0 0 2.66667 0 6C0 9.33333 2.66667 12 6 12C7.06667 12 8.06667 11.7333 9 11.2C9.33333 11 9.4 10.6 9.26667 10.2667C9.06667 10 8.66667 9.86667 8.33333 10.0667Z" fill="#21334F"/>
</svg>
